<?xml version="1.0" encoding="utf-8"?>
<!-- Generator: Adobe Illustrator 15.1.0, SVG Export Plug-In  -->
<!DOCTYPE svg PUBLIC "-//W3C//DTD SVG 1.1//EN" "http://www.w3.org/Graphics/SVG/1.1/DTD/svg11.dtd" [
	<!ENTITY ns_flows "http://ns.adobe.com/Flows/1.0/">
]>
<svg version="1.1"
	 xmlns="http://www.w3.org/2000/svg" xmlns:xlink="http://www.w3.org/1999/xlink" xmlns:a="http://ns.adobe.com/AdobeSVGViewerExtensions/3.0/"
	 x="0px" y="0px" width="160px" height="40px" viewBox="0 0 160 40" overflow="visible" enable-background="new 0 0 160 40"
	 xml:space="preserve">
<defs>
</defs>
<rect display="none" fill="#9B9B9B" width="160" height="39.912"/>
<path id="Line_1_" display="none" fill="none" stroke="#FFFFFF" d="M98.5,7.5h11"/>
<path id="Line2_1_" display="none" fill="none" stroke="#FFFFFF" d="M98.5,3.5h11"/>
<path id="Line3_1_" display="none" fill="none" stroke="#FFFFFF" d="M98.5,11.5h11"/>
<path id="Ellipse_1_" display="none" fill="#FFFFFF" d="M108,11.5c0-0.828,0.447-1.5,1-1.5s1,0.672,1,1.5s-0.447,1.5-1,1.5
	S108,12.328,108,11.5z"/>
<path id="Ellipse2_1_" display="none" fill="#FFFFFF" d="M104,7.5c0-0.828,0.447-1.5,1-1.5s1,0.672,1,1.5S105.553,9,105,9
	S104,8.328,104,7.5z"/>
<path id="Ellipse3_1_" display="none" fill="#FFFFFF" d="M108,3.5c0-0.828,0.447-1.5,1-1.5s1,0.672,1,1.5S109.553,5,109,5
	S108,4.328,108,3.5z"/>
<rect x="89" y="27.992" display="none" fill="#333333" stroke="#FFFFFF" width="10" height="6"/>
<radialGradient id="Ellipse4_2_" cx="-809.9639" cy="977.9512" r="0.5" gradientTransform="matrix(14 0 0 -10 11432.5 9788.5)" gradientUnits="userSpaceOnUse">
	<stop  offset="0" style="stop-color:#FFFFFF"/>
	<stop  offset="1" style="stop-color:#F2F2F2;stop-opacity:0.2"/>
</radialGradient>
<path id="Ellipse4_1_" display="none" fill="url(#Ellipse4_2_)" d="M86,8.992c0-2.762,3.134-5,7-5s7,2.238,7,5s-3.134,5-7,5
	S86,11.754,86,8.992z"/>
<rect x="88" y="5.992" display="none" fill="#333333" stroke="#FFFFFF" width="10" height="6"/>
<linearGradient id="SVGID_1_" gradientUnits="userSpaceOnUse" x1="-807.1245" y1="982.3779" x2="-807.1245" y2="979.8027" gradientTransform="matrix(12 0 0 -11.125 9762.5 10931.9375)">
	<stop  offset="0" style="stop-color:#FFFFFF"/>
	<stop  offset="1" style="stop-color:#C8C8C8"/>
</linearGradient>
<path display="none" fill="url(#SVGID_1_)" d="M78.795,5.197c1.42,0.673,2.405,2.118,2.405,3.795c0,2.319-1.881,4.2-4.2,4.2
	s-4.2-1.881-4.2-4.2c0-1.677,0.985-3.122,2.405-3.795l-1.33-1.33C72.15,4.921,71,6.823,71,8.992c0,3.314,2.686,6,6,6s6-2.686,6-6
	c0-2.169-1.15-4.071-2.875-5.125L78.795,5.197z"/>
<linearGradient id="SVGID_2_" gradientUnits="userSpaceOnUse" x1="-779.2998" y1="940.4023" x2="-779.2998" y2="938.0148" gradientTransform="matrix(5 0 0 -5 3970 4705)">
	<stop  offset="0" style="stop-color:#FFFFFF"/>
	<stop  offset="1" style="stop-color:#C8C8C8"/>
</linearGradient>
<path display="none" fill="url(#SVGID_2_)" d="M76,2.992h-5l5,5V2.992z"/>
<path display="none" fill="#A8A8B7" d="M79.795,27.197c1.42,0.674,2.405,2.118,2.405,3.795c0,2.319-1.881,4.2-4.2,4.2
	s-4.2-1.881-4.2-4.2c0-1.677,0.985-3.121,2.405-3.795l-1.33-1.33C73.15,26.921,72,28.822,72,30.992c0,3.314,2.686,6,6,6s6-2.686,6-6
	c0-2.17-1.15-4.071-2.875-5.125L79.795,27.197z"/>
<path display="none" fill="#A8A8B7" d="M77,24.992h-5l5,5V24.992z"/>
<rect x="49" y="2" display="none" fill="none" stroke="#B0B0B0" width="14" height="12"/>
<text transform="matrix(1 0 0 1 54 17.9922)" display="none" fill="#FFFFFF" enable-background="new    " font-family="'ArialMT'" font-size="10">cc</text>
<path display="none" fill="none" stroke="#FFFFFF" d="M60,7.992c-4.719-3.219-4.937,5.94,0,3"/>
<path display="none" fill="none" stroke="#FFFFFF" d="M65,7.992c-4.719-3.219-4.937,5.94,0,3"/>
<linearGradient id="SVGID_3_" gradientUnits="userSpaceOnUse" x1="-809.9644" y1="984.793" x2="-809.9644" y2="983.793" gradientTransform="matrix(14 0 0 -12 11400.5 11820.5)">
	<stop  offset="0" style="stop-color:#FFFFFF"/>
	<stop  offset="1" style="stop-color:#C8C8C8"/>
</linearGradient>
<path display="none" fill="url(#SVGID_3_)" d="M55,3.992h12v10H55V3.992z M54,2.992v12h14v-12H54z"/>
<rect x="54" y="2.992" display="none" fill="none" width="14" height="12"/>
<linearGradient id="SVGID_4_" gradientUnits="userSpaceOnUse" x1="-779.3003" y1="953.418" x2="-779.3003" y2="951.5638" gradientTransform="matrix(5 0 0 -6 3921 5724.5)">
	<stop  offset="0" style="stop-color:#FFFFFF"/>
	<stop  offset="1" style="stop-color:#C8C8C8"/>
</linearGradient>
<rect x="22" y="5.992" display="none" fill="url(#SVGID_4_)" width="5" height="6"/>
<linearGradient id="SVGID_5_" gradientUnits="userSpaceOnUse" x1="-767.375" y1="984.793" x2="-767.375" y2="983.793" gradientTransform="matrix(4 0 0 -12 3097.5 11820.5)">
	<stop  offset="0" style="stop-color:#FFFFFF"/>
	<stop  offset="1" style="stop-color:#C8C8C8"/>
</linearGradient>
<path display="none" fill="url(#SVGID_5_)" d="M26,5.992l4-3v12l-4-2.938V5.992z"/>
<linearGradient id="SVGID_6_" gradientUnits="userSpaceOnUse" x1="-779.1001" y1="952.417" x2="-779.1001" y2="950.5628" gradientTransform="matrix(5 0 0 -6 3921 5740.5)">
	<stop  offset="0" style="stop-color:#FFFFFF"/>
	<stop  offset="1" style="stop-color:#C8C8C8"/>
</linearGradient>
<rect x="23" y="27.992" display="none" fill="url(#SVGID_6_)" width="5" height="6"/>
<linearGradient id="SVGID_7_" gradientUnits="userSpaceOnUse" x1="-767.125" y1="984.293" x2="-767.125" y2="983.293" gradientTransform="matrix(4 0 0 -12 3097.5 11836.5)">
	<stop  offset="0" style="stop-color:#FFFFFF"/>
	<stop  offset="1" style="stop-color:#C8C8C8"/>
</linearGradient>
<path display="none" fill="url(#SVGID_7_)" d="M27,27.992l4-3v12l-4-2.938V27.992z"/>
<path display="none" fill="none" stroke="#FFFFFF" d="M33,24.992c0,0,3.062-0.625,3,6s-3,6-3,6"/>
<path display="none" fill="none" stroke="#FFFFFF" d="M32,28c0,0,2.041-0.312,2,2.992c-0.042,3.304-2,2.992-2,2.992"/>
<linearGradient id="Polygon_2_" gradientUnits="userSpaceOnUse" x1="-805.7725" y1="982" x2="-805.7725" y2="981" gradientTransform="matrix(11 0 0 -11 8872 10805)">
	<stop  offset="0" style="stop-color:#FFFFFF"/>
	<stop  offset="1" style="stop-color:#C8C8C8"/>
</linearGradient>
<path id="Polygon_1_" display="none" fill="url(#Polygon_2_)" d="M14,8.5L3,14V3L14,8.5z"/>
<linearGradient id="SVGID_8_" gradientUnits="userSpaceOnUse" x1="-748.833" y1="984.375" x2="-748.833" y2="983.375" gradientTransform="matrix(3 0 0 -12 2252 11836.5)">
	<stop  offset="0" style="stop-color:#FFFFFF"/>
	<stop  offset="1" style="stop-color:#C8C8C8"/>
</linearGradient>
<rect x="4" y="24" display="none" fill="url(#SVGID_8_)" width="3" height="12"/>
<linearGradient id="SVGID_9_" gradientUnits="userSpaceOnUse" x1="-748.8335" y1="984.375" x2="-748.8335" y2="983.375" gradientTransform="matrix(3 0 0 -12 2259 11836.5)">
	<stop  offset="0" style="stop-color:#FFFFFF"/>
	<stop  offset="1" style="stop-color:#C8C8C8"/>
</linearGradient>
<rect x="11" y="24" display="none" fill="url(#SVGID_9_)" width="3" height="12"/>
<linearGradient id="SVGID_10_" gradientUnits="userSpaceOnUse" x1="-779.2998" y1="940.4023" x2="-779.2998" y2="938.0148" gradientTransform="matrix(5 0 0 -5 3938 4705)">
	<stop  offset="0" style="stop-color:#FFFFFF"/>
	<stop  offset="1" style="stop-color:#C8C8C8"/>
</linearGradient>
<path display="none" fill="url(#SVGID_10_)" d="M39,2.992h5l-5,5V2.992z"/>
<linearGradient id="SVGID_11_" gradientUnits="userSpaceOnUse" x1="-779.2998" y1="941.8018" x2="-779.2998" y2="939.4142" gradientTransform="matrix(5 0 0 -5 3938 4712)">
	<stop  offset="0" style="stop-color:#FFFFFF"/>
	<stop  offset="1" style="stop-color:#C8C8C8"/>
</linearGradient>
<path display="none" fill="url(#SVGID_11_)" d="M39,14.992h5l-5-5V14.992z"/>
<linearGradient id="SVGID_12_" gradientUnits="userSpaceOnUse" x1="-779.2998" y1="940.4023" x2="-779.2998" y2="938.0148" gradientTransform="matrix(5 0 0 -5 3945 4705)">
	<stop  offset="0" style="stop-color:#FFFFFF"/>
	<stop  offset="1" style="stop-color:#C8C8C8"/>
</linearGradient>
<path display="none" fill="url(#SVGID_12_)" d="M51,2.992h-5l5,5V2.992z"/>
<linearGradient id="SVGID_13_" gradientUnits="userSpaceOnUse" x1="-779.2998" y1="941.8018" x2="-779.2998" y2="939.4142" gradientTransform="matrix(5 0 0 -5 3945 4712)">
	<stop  offset="0" style="stop-color:#FFFFFF"/>
	<stop  offset="1" style="stop-color:#C8C8C8"/>
</linearGradient>
<path display="none" fill="url(#SVGID_13_)" d="M51,14.992h-5l5-5V14.992z"/>
<linearGradient id="SVGID_14_" gradientUnits="userSpaceOnUse" x1="-767.125" y1="919.877" x2="-767.125" y2="916.8926" gradientTransform="matrix(4 0 0 -4 3118.5 3704.5)">
	<stop  offset="0" style="stop-color:#FFFFFF"/>
	<stop  offset="1" style="stop-color:#C8C8C8"/>
</linearGradient>
<path display="none" fill="url(#SVGID_14_)" d="M48,28.992h4l-4-4V28.992z"/>
<linearGradient id="SVGID_15_" gradientUnits="userSpaceOnUse" x1="-767.125" y1="919.877" x2="-767.125" y2="917.4894" gradientTransform="matrix(4 0 0 -4 3110.5 3704.5)">
	<stop  offset="0" style="stop-color:#FFFFFF"/>
	<stop  offset="1" style="stop-color:#C8C8C8"/>
</linearGradient>
<path display="none" fill="url(#SVGID_15_)" d="M44,28.992v-4l-4,4H44z"/>
<linearGradient id="SVGID_16_" gradientUnits="userSpaceOnUse" x1="-767.125" y1="921.877" x2="-767.125" y2="918.877" gradientTransform="matrix(4 0 0 -4 3110.5 3712.5)">
	<stop  offset="0" style="stop-color:#FFFFFF"/>
	<stop  offset="1" style="stop-color:#C8C8C8"/>
</linearGradient>
<path display="none" fill="url(#SVGID_16_)" d="M44,32.992h-4l4,4V32.992z"/>
<linearGradient id="SVGID_17_" gradientUnits="userSpaceOnUse" x1="-767.125" y1="921.877" x2="-767.125" y2="918.7676" gradientTransform="matrix(4 0 0 -4 3118.5 3712.5)">
	<stop  offset="0" style="stop-color:#FFFFFF"/>
	<stop  offset="1" style="stop-color:#C8C8C8"/>
</linearGradient>
<path display="none" fill="url(#SVGID_17_)" d="M48,32.992v4l4-4H48z"/>
<linearGradient id="SVGID_18_" gradientUnits="userSpaceOnUse" x1="-803.6499" y1="978.5508" x2="-803.6499" y2="977.5508" gradientTransform="matrix(10 0 0 -10 8156.5 9788.5)">
	<stop  offset="0" style="stop-color:#FFFFFF"/>
	<stop  offset="1" style="stop-color:#C8C8C8"/>
</linearGradient>
<rect x="115" y="3" display="none" fill="url(#SVGID_18_)" width="10" height="10"/>
<linearGradient id="SVGID_19_" gradientUnits="userSpaceOnUse" x1="-809.2632" y1="987.6719" x2="-809.2632" y2="986.6719" gradientTransform="matrix(13.1648 0 0 -13.1648 10789.7822 13003.9336)">
	<stop  offset="0" style="stop-color:#FFFFFF"/>
	<stop  offset="0.9944" style="stop-color:#C8C8C8"/>
</linearGradient>
<path display="none" fill="url(#SVGID_19_)" d="M135.234,6.152c1.021-0.423,2.191,0.062,2.613,1.082
	c0.423,1.021-0.062,2.19-1.082,2.613s-2.191-0.062-2.613-1.082C133.729,7.745,134.214,6.575,135.234,6.152z M133.273,1.417
	L136,4.005l2.727-2.588l0.098,3.758l3.758,0.098L139.994,8l2.588,2.727l-3.758,0.098l-0.098,3.758L136,11.995l-2.727,2.588
	l-0.098-3.758l-3.758-0.098L132.006,8l-2.588-2.727l3.758-0.098L133.273,1.417z"/>
<polygon points="47.621,11.319 45.344,13.595 44,12.25 44,16 47.75,16 46.405,14.656 48.681,12.379 "/>
<polygon points="52.25,4 53.595,5.344 51.318,7.621 52.379,8.682 54.656,6.405 56,7.75 56,4 "/>
<polygon points="47.621,8.681 48.681,7.621 46.405,5.344 47.75,4 44,4 44,7.75 45.344,6.405 "/>
<polygon points="52.379,11.318 51.318,12.379 53.595,14.656 52.25,16 56,16 56,12.25 54.656,13.595 "/>
<path d="M28.421,26.314l-2.266,1.673c-0.388,0.285-0.704,0.461-0.704,0.392c0-0.07-0.395-0.129-0.875-0.129h-0.701
	c-0.481,0-0.875,0.394-0.875,0.875v1.924c0,0.481,0.394,0.875,0.875,0.875h0.701c0.48,0,0.875-0.02,0.875-0.045
	c0-0.026,0.316,0.187,0.704,0.472l2.266,1.675c0.388,0.285,0.704,0.124,0.704-0.355v-7C29.125,26.188,28.809,26.028,28.421,26.314z"
	/>
<path d="M30.48,29.288c0.232,0.158,0.395,0.41,0.395,0.712s-0.162,0.554-0.395,0.712l0.638,0.623
	c0.383-0.32,0.632-0.796,0.632-1.335s-0.249-1.015-0.632-1.335L30.48,29.288z"/>
<path d="M32.998,26.828l-0.628,0.613c0.69,0.639,1.13,1.545,1.13,2.559s-0.439,1.92-1.13,2.559l0.628,0.613
	c0.844-0.799,1.377-1.921,1.377-3.172S33.842,27.627,32.998,26.828z"/>
<path d="M34.882,24.989l-0.628,0.614c1.151,1.113,1.871,2.671,1.871,4.396s-0.72,3.283-1.871,4.396l0.628,0.614
	C36.187,33.739,37,31.965,37,30S36.187,26.261,34.882,24.989z"/>
<path d="M35.5,5.713L34.286,4.5l-1.202,1.202c0.257,0.295,0.43,0.698,0.43,1.214V7.7L35.5,5.713z"/>
<path d="M27.075,13.359c-0.464,0-0.892-0.153-1.244-0.404L24.5,14.287l1.214,1.214l2.143-2.143c-0.03,0-0.065,0.002-0.094,0.002
	H27.075z"/>
<path d="M31.536,6.726l-2.224,1.643c-0.38,0.28-0.691,0.453-0.691,0.383c0-0.068-0.387-0.125-0.858-0.125h-0.688
	c-0.472,0-0.858,0.386-0.858,0.858v1.888c0,0.472,0.387,0.858,0.858,0.858h0.688c0.471,0,0.858-0.02,0.858-0.045
	c0-0.025,0.311,0.184,0.691,0.464l2.224,1.642c0.38,0.28,0.69,0.123,0.69-0.349V7.075C32.226,6.603,31.916,6.446,31.536,6.726z"/>
<path d="M12.83,9.571L11.02,8.515c-0.404-0.236-1.065-0.622-1.47-0.857L7.672,6.602C7.269,6.365,6.872,6.556,6.872,7.023v2.126
	c0,0.468,0,1.233,0,1.701v2.126c0,0.468,0.397,0.658,0.801,0.422l1.844-1.056c0.405-0.236,1.083-0.622,1.487-0.857l1.819-1.056
	C13.226,10.193,13.234,9.807,12.83,9.571z"/>
<path d="M8.25,26.062H7.375c-0.483,0-0.875,0.392-0.875,0.875v6.125c0,0.483,0.392,0.875,0.875,0.875H8.25
	c0.483,0,0.875-0.392,0.875-0.875v-6.125C9.125,26.454,8.733,26.062,8.25,26.062z"/>
<path d="M12.625,26.062H11.75c-0.483,0-0.875,0.392-0.875,0.875v6.125c0,0.483,0.392,0.875,0.875,0.875h0.875
	c0.483,0,0.875-0.392,0.875-0.875v-6.125C13.5,26.454,13.108,26.062,12.625,26.062z"/>
<polygon points="45.061,24 44,25.061 46.186,27.246 44.932,28.5 48.5,28.5 48.5,24.932 47.246,26.186 "/>
<polygon points="53.814,27.246 56,25.061 54.939,24 52.754,26.186 51.5,24.932 51.5,28.5 55.068,28.5 "/>
<polygon points="46.186,32.754 44,34.939 45.061,36 47.246,33.814 48.5,35.068 48.5,31.5 44.932,31.5 "/>
<polygon points="55.068,31.5 51.5,31.5 51.5,35.068 52.754,33.814 54.939,36 56,34.939 53.814,32.754 "/>
</svg>
